<svg width="66" height="66" viewBox="0 0 66 66" fill="none" xmlns="http://www.w3.org/2000/svg">
<g clip-path="url(#clip0_187_356)">
<path d="M40.3999 17.4629C30.8999 24.2629 23.7999 34.0629 20.3999 45.3629C24.9999 38.5629 29.9999 32.7629 35.6999 28.9629C28.9999 34.9629 23.5999 42.9629 18.8999 52.4629C23.8999 45.1629 30.5999 39.0629 38.2999 34.5629C31.6999 40.0629 25.5999 46.2629 20.1999 52.9629C30.7999 44.5629 41.9999 39.0629 53.9999 37.1629L65.6999 55.2629H-0.100098L32.8999 5.96289L40.3999 17.4629Z" fill="#0055A5"/>
<path d="M21.2 43.9631C26.1 30.5631 34.1999 21.9631 43.5999 15.1631L47 20.9631C37.2 25.1631 28.5 32.3631 21.2 43.9631Z" fill="#4DAA3F"/>
<path d="M20.5 49.6629C30.6 36.7629 40.8 29.8629 51 27.0629L47.8 21.9629C33.3 27.7629 26.3 38.3629 20.5 49.6629Z" fill="#4DAA3F"/>
<path d="M21.7998 50.9627C30.8998 38.3627 41.0998 31.3627 52.2998 29.2627L55.4998 34.1627C43.7998 36.0627 32.4998 41.0627 21.7998 50.9627Z" fill="#4DAA3F"/>
</g>
<defs>
<clipPath id="clip0_187_356">
<rect width="66" height="66" fill="white"/>
</clipPath>
</defs>
</svg>
