<?xml version="1.0" encoding="utf-8"?>
<!-- Generator: Adobe Illustrator 25.0.0, SVG Export Plug-In . SVG Version: 6.00 Build 0)  -->
<svg version="1.1" id="Layer_1" xmlns="http://www.w3.org/2000/svg" xmlns:xlink="http://www.w3.org/1999/xlink" x="0px" y="0px"
	 viewBox="0 0 353 64.2" style="enable-background:new 0 0 353 64.2;" xml:space="preserve">
<style type="text/css">
	.st0{fill:#0055A5;}
	.st1{fill:#4DAA3F;}
</style>
<g id="Group_1" transform="translate(-44.112 -71.158)">
	<g id="Group_1-2" transform="translate(44.112 71.521)">
		<path id="Path_1" class="st0" d="M45.4,17.1c-9.5,6.8-16.6,16.6-20,27.9c4.6-6.8,9.6-12.6,15.3-16.4c-6.7,6-12.1,14-16.8,23.5
			c5-7.3,11.7-13.4,19.4-17.9c-6.6,5.5-12.7,11.7-18.1,18.4C35.8,44.2,47,38.7,59,36.8l11.7,18.1H4.9l33-49.3L45.4,17.1z"/>
		<path id="Path_2" class="st1" d="M26.2,43.6c4.9-13.4,13-22,22.4-28.8l3.4,5.8C42.2,24.8,33.5,32,26.2,43.6"/>
		<path id="Path_3" class="st1" d="M25.5,49.3C35.6,36.4,45.8,29.5,56,26.7l-3.2-5.1C38.3,27.4,31.3,38,25.5,49.3"/>
		<path id="Path_4" class="st1" d="M26.8,50.6C35.9,38,46.1,31,57.3,28.9l3.2,4.9C48.8,35.7,37.5,40.7,26.8,50.6"/>
	</g>
	<path id="Path_5" class="st0" d="M177.3,111.4l-7.6-0.1l-5.7-9.5h-16.2l3.6-5.9h9l-5.9-9.8L139,111.3h-7.6l18.5-30.8
		c0.5-0.8,1.2-1.6,1.9-2.2c0.8-0.7,1.7-1.1,2.7-1.2c1,0.1,1.9,0.4,2.7,1.1c0.8,0.6,1.4,1.4,1.9,2.2L177.3,111.4z M215.9,111.4h-19.3
		c-4.6,0.1-9.1-1.7-12.3-4.9c-3.3-3.3-5-7.8-4.9-12.5c-0.2-4.5,1.6-8.9,4.8-12.1c3.3-3.1,7.8-4.8,12.4-4.6h19.3v5.9h-19.3
		c-6-0.2-11,4.4-11.2,10.4c0,0.3,0,0.6,0,0.9c-0.1,3,1,5.9,3.2,7.9c2.2,2.1,5.1,3.2,8.1,3h19.3V111.4z M259.9,96
		c0,5.5-1.6,9.5-4.9,12c-2.9,2.2-7.2,3.3-12.9,3.3h-2c-5.7,0-10-1.1-12.9-3.3c-3.3-2.5-4.9-6.5-4.9-12V77.2h5.9V96
		c0,4.1,1.4,6.8,4.3,8.1c1.8,0.8,5.1,1.2,9.7,1.2c3.9,0,6.7-0.6,8.5-1.8c2.3-1.5,3.4-4,3.4-7.6V77.2h5.9V96z M318.1,111.4h-6.7
		l-5-23.9l-11.4,22c-0.5,1.3-1.8,2.2-3.2,2.3c-1.5,0-2.9-0.9-3.5-2.3l-11.4-22l-4.9,23.9h-6.8l7.6-31.3c0.2-0.9,0.7-1.7,1.3-2.3
		c0.6-0.6,1.5-1,2.4-1c1.3,0,2.5,1.1,3.7,3.3l11.4,22.3l11.4-22.3c1.2-2.2,2.4-3.3,3.7-3.3c0.9,0,1.8,0.4,2.4,1.1
		c0.6,0.6,1.1,1.4,1.3,2.3L318.1,111.4z M352.4,97h-19.5v-5.9h19.5V97z M354,111.4h-29.5V77.2H354v5.9h-23.5v22.2H354L354,111.4z
		 M394.7,108.4c0,2.2-0.7,3.3-2.2,3.3c-1.1,0-2.3-0.7-3.7-2l-21.9-22v23.7h-5.9V80.2c0-0.7,0.2-1.5,0.7-2.1c0.4-0.6,1.1-0.9,1.8-0.9
		c1.3,0.1,2.5,0.7,3.4,1.8l21.9,21.9V77.2h5.9L394.7,108.4z"/>
	<g id="Group_2" transform="translate(142.13 110.207)">
		<path id="Path_6" class="st1" d="M6.9,14.8c0.4,0,0.7,0.1,1.1,0.1c2.5,0,4-1.4,4-4.1c0-2.3-1.3-3.7-3.8-3.7c-0.4,0-0.9,0-1.3,0.1
			V14.8z M4.9,5.8C6,5.7,7,5.6,8,5.6c1.5-0.1,3.1,0.3,4.3,1.2c1.1,1,1.7,2.4,1.7,3.9c0.1,1.6-0.5,3.1-1.7,4.2
			C11,16,9.3,16.5,7.6,16.4c-0.9,0-1.7,0-2.6-0.1L4.9,5.8z"/>
		<path id="Path_7" class="st1" d="M18.8,11.1c0-1,0-1.8-0.1-2.5h1.7l0.1,1.5h0.1c0.3-0.9,1.1-1.6,2.1-1.6c0.2,0,0.3,0,0.5,0v1.8
			c-0.2,0-0.4-0.1-0.6-0.1c-0.9,0-1.6,0.6-1.7,1.5c0,0.2-0.1,0.4-0.1,0.6v4h-1.9L18.8,11.1z"/>
		<path id="Path_8" class="st1" d="M32.2,11.6c0.1-0.9-0.5-1.7-1.4-1.9c-0.1,0-0.1,0-0.2,0c-1,0.1-1.8,0.9-1.8,1.9H32.2z M28.8,13
			c0,1.2,1,2,2.2,2c0.1,0,0.1,0,0.2,0c0.7,0,1.4-0.1,2.1-0.3l0.3,1.3c-0.9,0.3-1.8,0.5-2.7,0.5c-2,0.2-3.8-1.3-4-3.3
			c0-0.2,0-0.4,0-0.6c0-2.1,1.3-4.1,3.7-4.1c2.5,0,3.3,2,3.3,3.7c0,0.3,0,0.5-0.1,0.8L28.8,13z"/>
		<path id="Path_9" class="st1" d="M42.8,12.5c-1.4,0-2.7,0.3-2.7,1.4c0,0.6,0.4,1.1,0.9,1.1c0.1,0,0.1,0,0.2,0
			c0.7,0,1.3-0.4,1.5-1.1c0-0.1,0.1-0.3,0.1-0.4L42.8,12.5z M44.7,14.4c0,0.6,0,1.2,0.1,1.8H43l-0.1-0.8h0c-0.6,0.7-1.4,1.1-2.3,1
			c-1.3,0.1-2.3-0.9-2.4-2.1c0,0,0-0.1,0-0.1c0-1.9,1.7-2.9,4.6-2.9v-0.1c0-0.5-0.2-1.3-1.6-1.3c-0.7,0-1.4,0.2-2.1,0.6l-0.4-1.3
			c0.8-0.5,1.8-0.7,2.8-0.7c2.5,0,3.2,1.6,3.2,3.2L44.7,14.4z"/>
		<path id="Path_10" class="st1" d="M49.9,10.9c0-0.9,0-1.6-0.1-2.3h1.7l0.1,1.1h0C52.1,8.9,53,8.4,54,8.4c0.9,0,1.8,0.5,2.1,1.4h0
			c0.2-0.4,0.6-0.7,0.9-1c0.5-0.3,1-0.5,1.5-0.5c1.3,0,2.6,0.9,2.6,3.3v4.5h-1.9V12c0-1.3-0.4-2-1.4-2c-0.6,0-1.2,0.4-1.4,1
			c-0.1,0.2-0.1,0.4-0.1,0.6v4.6h-1.9v-4.4c0-1.1-0.4-1.8-1.3-1.8c-0.7,0-1.2,0.5-1.4,1.1c-0.1,0.2-0.1,0.4-0.1,0.6v4.5h-1.9
			L49.9,10.9z"/>
		<path id="Path_11" class="st1" d="M74.2,16.5c-0.7,0-1.2-0.6-1.2-1.3c0-0.6,0.6-1.2,1.2-1.2c0.7,0,1.2,0.6,1.2,1.3
			C75.4,15.9,74.9,16.4,74.2,16.5L74.2,16.5z"/>
		<rect id="Rectangle_1" x="87.4" y="5.7" class="st1" width="1.9" height="10.6"/>
		<path id="Path_12" class="st1" d="M94.8,10.9c0-0.9,0-1.6-0.1-2.3h1.7l0.1,1.2h0C97.1,8.9,98,8.4,99,8.4c1.3,0,2.7,0.9,2.7,3.3
			v4.6h-1.9V12c0-1.1-0.4-1.9-1.5-1.9c-0.7,0-1.3,0.5-1.5,1.1c-0.1,0.2-0.1,0.4-0.1,0.6v4.5h-2L94.8,10.9z"/>
		<path id="Path_13" class="st1" d="M107.9,8.6l1.2,3.9c0.2,0.7,0.4,1.3,0.5,1.9h0c0.1-0.6,0.3-1.2,0.5-1.9l1.2-3.9h2l-2.9,7.7h-1.9
			l-2.9-7.7H107.9z"/>
		<path id="Path_14" class="st1" d="M122.4,11.6c0.1-0.9-0.5-1.7-1.4-1.9c-0.1,0-0.1,0-0.2,0c-1,0.1-1.8,0.9-1.8,1.9H122.4z M119,13
			c0,1.1,1,2,2.2,2c0.1,0,0.1,0,0.2,0c0.7,0,1.4-0.1,2.1-0.3l0.3,1.3c-0.9,0.3-1.8,0.5-2.7,0.5c-2,0.2-3.8-1.3-3.9-3.3
			c0-0.2,0-0.4,0-0.6c0-2.1,1.3-4.1,3.7-4.1c2.5,0,3.3,2,3.3,3.7c0,0.3,0,0.5-0.1,0.8L119,13z"/>
		<path id="Path_15" class="st1" d="M128.8,14.5c0.6,0.3,1.3,0.5,2,0.6c0.9,0,1.2-0.3,1.2-0.9s-0.3-0.8-1.3-1.1
			c-1.5-0.5-2.1-1.3-2.1-2.2c0-1.4,1.1-2.4,2.9-2.4c0.7,0,1.4,0.1,2,0.5l-0.4,1.4c-0.5-0.3-1.1-0.4-1.6-0.4c-0.7,0-1.1,0.3-1.1,0.8
			c0,0.5,0.4,0.7,1.3,1.1c1.4,0.5,2,1.2,2,2.3c0,1.4-1.1,2.4-3.1,2.4c-0.8,0-1.6-0.2-2.3-0.6L128.8,14.5z"/>
		<path id="Path_16" class="st1" d="M140.8,6.6v2h1.8v1.5h-1.8v3.4c0,0.9,0.3,1.4,1,1.4c0.3,0,0.5,0,0.8-0.1l0,1.5
			c-0.5,0.1-0.9,0.2-1.4,0.2c-0.6,0-1.2-0.2-1.7-0.6c-0.5-0.6-0.7-1.4-0.6-2.1v-3.6h-1.1V8.6h1.1V7.2L140.8,6.6z"/>
		<path id="Path_17" class="st1" d="M155.1,16.5c-0.7,0-1.2-0.6-1.2-1.3c0-0.7,0.6-1.2,1.2-1.2c0.7,0,1.2,0.6,1.2,1.3
			C156.3,15.9,155.8,16.4,155.1,16.5L155.1,16.5z"/>
		<path id="Path_18" class="st1" d="M170.3,10.8c0.3,0.1,0.6,0.1,0.9,0.1c1.5,0,2.3-0.7,2.3-2c0-1.2-0.8-1.8-2.2-1.8
			c-0.4,0-0.7,0-1.1,0.1L170.3,10.8z M168.4,5.8c1-0.2,2-0.2,3-0.2c1.1-0.1,2.2,0.2,3.1,0.9c0.7,0.6,1.1,1.5,1,2.4
			c0,0.9-0.3,1.8-0.9,2.4c-0.9,0.8-2.1,1.2-3.4,1.1c-0.3,0-0.6,0-0.9-0.1v4h-1.9L168.4,5.8z"/>
		<path id="Path_19" class="st1" d="M180.1,11.1c0-1,0-1.8-0.1-2.5h1.7l0.1,1.5h0.1c0.3-0.9,1.1-1.6,2.1-1.6c0.2,0,0.3,0,0.5,0v1.8
			c-0.2,0-0.4-0.1-0.6-0.1c-0.9,0-1.6,0.6-1.7,1.5c0,0.2-0.1,0.4-0.1,0.6v4h-1.9L180.1,11.1z"/>
		<path id="Path_20" class="st1" d="M190.2,12.5c0,1.5,0.7,2.6,1.9,2.6c1.1,0,1.9-1.1,1.9-2.6c0-1.2-0.5-2.6-1.9-2.6
			C190.8,9.9,190.2,11.2,190.2,12.5 M196,12.4c0.2,2.1-1.4,3.9-3.5,4.1c-0.1,0-0.3,0-0.4,0c-2,0.1-3.8-1.5-3.8-3.6
			c0-0.1,0-0.3,0-0.4c-0.2-2.1,1.4-3.9,3.5-4.1c0.2,0,0.3,0,0.5,0c2-0.1,3.7,1.5,3.8,3.5C196,12.1,196,12.2,196,12.4"/>
		<path id="Path_21" class="st1" d="M200.6,14.5c0.6,0.3,1.3,0.5,2,0.6c0.8,0,1.2-0.3,1.2-0.9s-0.3-0.8-1.3-1.1
			c-1.5-0.5-2.1-1.3-2.1-2.2c0-1.4,1.1-2.4,2.9-2.4c0.7,0,1.4,0.1,2,0.5l-0.4,1.4c-0.5-0.3-1.1-0.4-1.6-0.4c-0.7,0-1.1,0.3-1.1,0.8
			c0,0.5,0.4,0.7,1.3,1.1c1.4,0.5,2,1.2,2,2.3c0,1.4-1.1,2.4-3.1,2.4c-0.8,0-1.6-0.2-2.3-0.6L200.6,14.5z"/>
		<path id="Path_22" class="st1" d="M212.4,13.1c0,0.2,0,0.4,0.1,0.5c0.2,0.8,0.9,1.4,1.7,1.4c1.2,0,2-1,2-2.5
			c0-1.4-0.7-2.5-1.9-2.5c-0.8,0-1.6,0.6-1.7,1.4c-0.1,0.2-0.1,0.3-0.1,0.5L212.4,13.1z M210.4,11.2c0-1,0-1.8-0.1-2.6h1.7l0.1,1.2
			h0c0.6-0.9,1.6-1.4,2.6-1.4c1.8,0,3.2,1.5,3.2,3.9c0,2.8-1.8,4.1-3.5,4.1c-0.8,0-1.7-0.3-2.2-1h0v4h-1.9V11.2z"/>
		<path id="Path_23" class="st1" d="M227.5,11.6c0.1-0.9-0.5-1.7-1.4-1.9c-0.1,0-0.1,0-0.2,0c-1,0.1-1.8,0.9-1.8,1.9H227.5z
			 M224.2,13c0,1.1,1,2,2.2,2c0.1,0,0.1,0,0.2,0c0.7,0,1.4-0.1,2.1-0.3L229,16c-0.9,0.3-1.8,0.5-2.7,0.5c-2,0.2-3.8-1.3-4-3.3
			c0-0.2,0-0.4,0-0.6c0-2.1,1.3-4.1,3.8-4.1c2.5,0,3.3,2,3.3,3.7c0,0.3,0,0.5-0.1,0.8L224.2,13z"/>
		<path id="Path_24" class="st1" d="M234.1,11.1c0-1,0-1.8-0.1-2.5h1.7l0.1,1.5h0.1c0.3-0.9,1.1-1.6,2.1-1.6c0.2,0,0.3,0,0.5,0v1.8
			c-0.2,0-0.4-0.1-0.6-0.1c-0.9,0-1.6,0.6-1.7,1.5c0,0.2-0.1,0.4-0.1,0.6v4h-1.9V11.1z"/>
	</g>
</g>
</svg>
